<svg id="Layer_1" data-name="Layer 1" xmlns="http://www.w3.org/2000/svg" viewBox="0 0 24 24"><path d="M7.82715,22.02246a2.58017,2.58017,0,0,0,2.64551.207l2.17724-1.083a1.52614,1.52614,0,0,0,.687-2.05419l-1.32129-2.62842a1.51764,1.51764,0,0,0-1.34863-.84424h-.00146L8.1416,15.50586C7.81348,15.30176,6.606,14.38916,6.606,12c0-2.39453,1.21289-3.30615,1.53466-3.50586l2.50245-.11328a1.5271,1.5271,0,0,0,1.37255-.84473l1.32129-2.62842a1.52614,1.52614,0,0,0-.687-2.05419L10.47266,1.771a2.57784,2.57784,0,0,0-2.645.20654,12.09135,12.09135,0,0,0-.00049,20.04492ZM8.40625,2.793a1.58051,1.58051,0,0,1,1.62109-.12647L12.20459,3.749a.5269.5269,0,0,1,.26855.30762.52063.52063,0,0,1-.02929.40186L11.12207,7.0874a.54276.54276,0,0,1-.50146.294l-2.64307.11914a.4986.4986,0,0,0-.19434.04883C7.69434,7.59229,5.606,8.63477,5.606,12s2.08838,4.40771,2.17724,4.45068a.4986.4986,0,0,0,.19434.04883l2.66553.11963a.53186.53186,0,0,1,.479.29346v.00049l1.32178,2.62841a.52063.52063,0,0,1,.02929.40186.5269.5269,0,0,1-.26855.30762l-2.17725,1.083a1.58692,1.58692,0,0,1-1.62158-.127A11.09235,11.09235,0,0,1,8.40625,2.793Zm9.89746,3.90381a.49995.49995,0,1,1,.707-.707,8.50042,8.50042,0,0,1,0,12.0205.49995.49995,0,0,1-.707-.707,7.50079,7.50079,0,0,0,0-10.60644Zm-2.12207,8.48535a4.49954,4.49954,0,0,0,0-6.36426.49995.49995,0,0,1,.707-.707,5.49917,5.49917,0,0,1,0,7.77832.49995.49995,0,0,1-.707-.707Zm-2.12109-2.12207a1.49829,1.49829,0,0,0,0-2.12012.50029.50029,0,0,1,.707-.708,2.50028,2.50028,0,0,1,0,3.53614.50029.50029,0,0,1-.707-.708Z"/></svg>